<mxfile host="Electron" modified="2023-07-22T20:27:43.380Z" agent="Mozilla/5.0 (Windows NT 10.0; Win64; x64) AppleWebKit/537.36 (KHTML, like Gecko) draw.io/21.6.1 Chrome/112.0.5615.204 Electron/24.6.1 Safari/537.36" etag="ApyngxRpGnbcJYOa1OpV" version="21.6.1" type="device" pages="2">
  <diagram id="C5RBs43oDa-KdzZeNtuy" name="domain-model">
    <mxGraphModel dx="1344" dy="875" grid="1" gridSize="10" guides="1" tooltips="1" connect="1" arrows="1" fold="1" page="1" pageScale="1" pageWidth="827" pageHeight="1169" math="0" shadow="0">
      <root>
        <mxCell id="WIyWlLk6GJQsqaUBKTNV-0" />
        <mxCell id="WIyWlLk6GJQsqaUBKTNV-1" parent="WIyWlLk6GJQsqaUBKTNV-0" />
        <mxCell id="zkfFHV4jXpPFQw0GAbJ--0" value="node:&lt;node-uuid&gt;" style="swimlane;fontStyle=2;align=center;verticalAlign=top;childLayout=stackLayout;horizontal=1;startSize=26;horizontalStack=0;resizeParent=1;resizeLast=0;collapsible=1;marginBottom=0;rounded=0;shadow=0;strokeWidth=1;" parent="WIyWlLk6GJQsqaUBKTNV-1" vertex="1">
          <mxGeometry x="220" y="120" width="160" height="234" as="geometry">
            <mxRectangle x="230" y="140" width="160" height="26" as="alternateBounds" />
          </mxGeometry>
        </mxCell>
        <mxCell id="zkfFHV4jXpPFQw0GAbJ--1" value="status: NodeStatus" style="text;align=left;verticalAlign=top;spacingLeft=4;spacingRight=4;overflow=hidden;rotatable=0;points=[[0,0.5],[1,0.5]];portConstraint=eastwest;" parent="zkfFHV4jXpPFQw0GAbJ--0" vertex="1">
          <mxGeometry y="26" width="160" height="26" as="geometry" />
        </mxCell>
        <mxCell id="zkfFHV4jXpPFQw0GAbJ--2" value="name: string" style="text;align=left;verticalAlign=top;spacingLeft=4;spacingRight=4;overflow=hidden;rotatable=0;points=[[0,0.5],[1,0.5]];portConstraint=eastwest;rounded=0;shadow=0;html=0;" parent="zkfFHV4jXpPFQw0GAbJ--0" vertex="1">
          <mxGeometry y="52" width="160" height="26" as="geometry" />
        </mxCell>
        <mxCell id="zkfFHV4jXpPFQw0GAbJ--3" value="type: NodeType" style="text;align=left;verticalAlign=top;spacingLeft=4;spacingRight=4;overflow=hidden;rotatable=0;points=[[0,0.5],[1,0.5]];portConstraint=eastwest;rounded=0;shadow=0;html=0;" parent="zkfFHV4jXpPFQw0GAbJ--0" vertex="1">
          <mxGeometry y="78" width="160" height="26" as="geometry" />
        </mxCell>
        <mxCell id="QJfZs9zZ-QmVLLbZD2tx-1" value="encKey: string (hex)" style="text;align=left;verticalAlign=top;spacingLeft=4;spacingRight=4;overflow=hidden;rotatable=0;points=[[0,0.5],[1,0.5]];portConstraint=eastwest;rounded=0;shadow=0;html=0;" vertex="1" parent="zkfFHV4jXpPFQw0GAbJ--0">
          <mxGeometry y="104" width="160" height="26" as="geometry" />
        </mxCell>
        <mxCell id="QJfZs9zZ-QmVLLbZD2tx-2" value="ip: string" style="text;align=left;verticalAlign=top;spacingLeft=4;spacingRight=4;overflow=hidden;rotatable=0;points=[[0,0.5],[1,0.5]];portConstraint=eastwest;rounded=0;shadow=0;html=0;" vertex="1" parent="zkfFHV4jXpPFQw0GAbJ--0">
          <mxGeometry y="130" width="160" height="26" as="geometry" />
        </mxCell>
        <mxCell id="QJfZs9zZ-QmVLLbZD2tx-3" value="createdOn: Date" style="text;align=left;verticalAlign=top;spacingLeft=4;spacingRight=4;overflow=hidden;rotatable=0;points=[[0,0.5],[1,0.5]];portConstraint=eastwest;rounded=0;shadow=0;html=0;" vertex="1" parent="zkfFHV4jXpPFQw0GAbJ--0">
          <mxGeometry y="156" width="160" height="26" as="geometry" />
        </mxCell>
        <mxCell id="QJfZs9zZ-QmVLLbZD2tx-4" value="lastRegisteredOn: Date" style="text;align=left;verticalAlign=top;spacingLeft=4;spacingRight=4;overflow=hidden;rotatable=0;points=[[0,0.5],[1,0.5]];portConstraint=eastwest;rounded=0;shadow=0;html=0;" vertex="1" parent="zkfFHV4jXpPFQw0GAbJ--0">
          <mxGeometry y="182" width="160" height="26" as="geometry" />
        </mxCell>
        <mxCell id="QJfZs9zZ-QmVLLbZD2tx-5" value="lastOnlineOn: Date" style="text;align=left;verticalAlign=top;spacingLeft=4;spacingRight=4;overflow=hidden;rotatable=0;points=[[0,0.5],[1,0.5]];portConstraint=eastwest;rounded=0;shadow=0;html=0;" vertex="1" parent="zkfFHV4jXpPFQw0GAbJ--0">
          <mxGeometry y="208" width="160" height="26" as="geometry" />
        </mxCell>
        <mxCell id="zkfFHV4jXpPFQw0GAbJ--17" value="network:&lt;network-uuid&gt;" style="swimlane;fontStyle=0;align=center;verticalAlign=top;childLayout=stackLayout;horizontal=1;startSize=26;horizontalStack=0;resizeParent=1;resizeLast=0;collapsible=1;marginBottom=0;rounded=0;shadow=0;strokeWidth=1;" parent="WIyWlLk6GJQsqaUBKTNV-1" vertex="1">
          <mxGeometry x="610" y="197" width="160" height="80" as="geometry">
            <mxRectangle x="550" y="140" width="160" height="26" as="alternateBounds" />
          </mxGeometry>
        </mxCell>
        <mxCell id="zkfFHV4jXpPFQw0GAbJ--18" value="name: string" style="text;align=left;verticalAlign=top;spacingLeft=4;spacingRight=4;overflow=hidden;rotatable=0;points=[[0,0.5],[1,0.5]];portConstraint=eastwest;" parent="zkfFHV4jXpPFQw0GAbJ--17" vertex="1">
          <mxGeometry y="26" width="160" height="26" as="geometry" />
        </mxCell>
        <mxCell id="zkfFHV4jXpPFQw0GAbJ--22" value="createdOn: Date" style="text;align=left;verticalAlign=top;spacingLeft=4;spacingRight=4;overflow=hidden;rotatable=0;points=[[0,0.5],[1,0.5]];portConstraint=eastwest;rounded=0;shadow=0;html=0;" parent="zkfFHV4jXpPFQw0GAbJ--17" vertex="1">
          <mxGeometry y="52" width="160" height="26" as="geometry" />
        </mxCell>
        <mxCell id="QJfZs9zZ-QmVLLbZD2tx-6" value="&lt;&lt;enum&gt;&gt; NodeStatus" style="swimlane;fontStyle=0;align=center;verticalAlign=top;childLayout=stackLayout;horizontal=1;startSize=26;horizontalStack=0;resizeParent=1;resizeLast=0;collapsible=1;marginBottom=0;rounded=0;shadow=0;strokeWidth=1;" vertex="1" parent="WIyWlLk6GJQsqaUBKTNV-1">
          <mxGeometry x="20" y="160" width="160" height="160" as="geometry">
            <mxRectangle x="20" y="160" width="160" height="26" as="alternateBounds" />
          </mxGeometry>
        </mxCell>
        <mxCell id="QJfZs9zZ-QmVLLbZD2tx-8" value="OFFLINE" style="text;align=left;verticalAlign=top;spacingLeft=4;spacingRight=4;overflow=hidden;rotatable=0;points=[[0,0.5],[1,0.5]];portConstraint=eastwest;rounded=0;shadow=0;html=0;" vertex="1" parent="QJfZs9zZ-QmVLLbZD2tx-6">
          <mxGeometry y="26" width="160" height="26" as="geometry" />
        </mxCell>
        <mxCell id="QJfZs9zZ-QmVLLbZD2tx-9" value="ONLINE" style="text;align=left;verticalAlign=top;spacingLeft=4;spacingRight=4;overflow=hidden;rotatable=0;points=[[0,0.5],[1,0.5]];portConstraint=eastwest;rounded=0;shadow=0;html=0;" vertex="1" parent="QJfZs9zZ-QmVLLbZD2tx-6">
          <mxGeometry y="52" width="160" height="26" as="geometry" />
        </mxCell>
        <mxCell id="QJfZs9zZ-QmVLLbZD2tx-7" value="LOADING" style="text;align=left;verticalAlign=top;spacingLeft=4;spacingRight=4;overflow=hidden;rotatable=0;points=[[0,0.5],[1,0.5]];portConstraint=eastwest;" vertex="1" parent="QJfZs9zZ-QmVLLbZD2tx-6">
          <mxGeometry y="78" width="160" height="26" as="geometry" />
        </mxCell>
        <mxCell id="QJfZs9zZ-QmVLLbZD2tx-10" value="EXPIRED" style="text;align=left;verticalAlign=top;spacingLeft=4;spacingRight=4;overflow=hidden;rotatable=0;points=[[0,0.5],[1,0.5]];portConstraint=eastwest;rounded=0;shadow=0;html=0;" vertex="1" parent="QJfZs9zZ-QmVLLbZD2tx-6">
          <mxGeometry y="104" width="160" height="26" as="geometry" />
        </mxCell>
        <mxCell id="QJfZs9zZ-QmVLLbZD2tx-11" value="REVOKED" style="text;align=left;verticalAlign=top;spacingLeft=4;spacingRight=4;overflow=hidden;rotatable=0;points=[[0,0.5],[1,0.5]];portConstraint=eastwest;rounded=0;shadow=0;html=0;" vertex="1" parent="QJfZs9zZ-QmVLLbZD2tx-6">
          <mxGeometry y="130" width="160" height="30" as="geometry" />
        </mxCell>
        <mxCell id="QJfZs9zZ-QmVLLbZD2tx-12" value="&lt;&lt;enum&gt;&gt; NodeType" style="swimlane;fontStyle=0;align=center;verticalAlign=top;childLayout=stackLayout;horizontal=1;startSize=26;horizontalStack=0;resizeParent=1;resizeLast=0;collapsible=1;marginBottom=0;rounded=0;shadow=0;strokeWidth=1;" vertex="1" parent="WIyWlLk6GJQsqaUBKTNV-1">
          <mxGeometry x="20" y="350" width="160" height="110" as="geometry">
            <mxRectangle x="20" y="160" width="160" height="26" as="alternateBounds" />
          </mxGeometry>
        </mxCell>
        <mxCell id="QJfZs9zZ-QmVLLbZD2tx-13" value="DEVICE" style="text;align=left;verticalAlign=top;spacingLeft=4;spacingRight=4;overflow=hidden;rotatable=0;points=[[0,0.5],[1,0.5]];portConstraint=eastwest;rounded=0;shadow=0;html=0;" vertex="1" parent="QJfZs9zZ-QmVLLbZD2tx-12">
          <mxGeometry y="26" width="160" height="26" as="geometry" />
        </mxCell>
        <mxCell id="QJfZs9zZ-QmVLLbZD2tx-14" value="FOG" style="text;align=left;verticalAlign=top;spacingLeft=4;spacingRight=4;overflow=hidden;rotatable=0;points=[[0,0.5],[1,0.5]];portConstraint=eastwest;rounded=0;shadow=0;html=0;" vertex="1" parent="QJfZs9zZ-QmVLLbZD2tx-12">
          <mxGeometry y="52" width="160" height="26" as="geometry" />
        </mxCell>
        <mxCell id="QJfZs9zZ-QmVLLbZD2tx-15" value="CLOUD" style="text;align=left;verticalAlign=top;spacingLeft=4;spacingRight=4;overflow=hidden;rotatable=0;points=[[0,0.5],[1,0.5]];portConstraint=eastwest;" vertex="1" parent="QJfZs9zZ-QmVLLbZD2tx-12">
          <mxGeometry y="78" width="160" height="26" as="geometry" />
        </mxCell>
        <mxCell id="QJfZs9zZ-QmVLLbZD2tx-18" value="&lt;&lt;enum&gt;&gt; UserType" style="swimlane;fontStyle=0;align=center;verticalAlign=top;childLayout=stackLayout;horizontal=1;startSize=26;horizontalStack=0;resizeParent=1;resizeLast=0;collapsible=1;marginBottom=0;rounded=0;shadow=0;strokeWidth=1;" vertex="1" parent="WIyWlLk6GJQsqaUBKTNV-1">
          <mxGeometry x="20" y="490" width="160" height="80" as="geometry">
            <mxRectangle x="20" y="160" width="160" height="26" as="alternateBounds" />
          </mxGeometry>
        </mxCell>
        <mxCell id="QJfZs9zZ-QmVLLbZD2tx-19" value="USER" style="text;align=left;verticalAlign=top;spacingLeft=4;spacingRight=4;overflow=hidden;rotatable=0;points=[[0,0.5],[1,0.5]];portConstraint=eastwest;rounded=0;shadow=0;html=0;" vertex="1" parent="QJfZs9zZ-QmVLLbZD2tx-18">
          <mxGeometry y="26" width="160" height="26" as="geometry" />
        </mxCell>
        <mxCell id="QJfZs9zZ-QmVLLbZD2tx-20" value="ADMIN" style="text;align=left;verticalAlign=top;spacingLeft=4;spacingRight=4;overflow=hidden;rotatable=0;points=[[0,0.5],[1,0.5]];portConstraint=eastwest;rounded=0;shadow=0;html=0;" vertex="1" parent="QJfZs9zZ-QmVLLbZD2tx-18">
          <mxGeometry y="52" width="160" height="26" as="geometry" />
        </mxCell>
        <mxCell id="QJfZs9zZ-QmVLLbZD2tx-22" value="user:&lt;username&gt;" style="swimlane;fontStyle=2;align=center;verticalAlign=top;childLayout=stackLayout;horizontal=1;startSize=26;horizontalStack=0;resizeParent=1;resizeLast=0;collapsible=1;marginBottom=0;rounded=0;shadow=0;strokeWidth=1;" vertex="1" parent="WIyWlLk6GJQsqaUBKTNV-1">
          <mxGeometry x="430" y="510" width="160" height="210" as="geometry">
            <mxRectangle x="230" y="140" width="160" height="26" as="alternateBounds" />
          </mxGeometry>
        </mxCell>
        <mxCell id="QJfZs9zZ-QmVLLbZD2tx-23" value="email: string" style="text;align=left;verticalAlign=top;spacingLeft=4;spacingRight=4;overflow=hidden;rotatable=0;points=[[0,0.5],[1,0.5]];portConstraint=eastwest;" vertex="1" parent="QJfZs9zZ-QmVLLbZD2tx-22">
          <mxGeometry y="26" width="160" height="26" as="geometry" />
        </mxCell>
        <mxCell id="QJfZs9zZ-QmVLLbZD2tx-24" value="passHash: string (hex)" style="text;align=left;verticalAlign=top;spacingLeft=4;spacingRight=4;overflow=hidden;rotatable=0;points=[[0,0.5],[1,0.5]];portConstraint=eastwest;rounded=0;shadow=0;html=0;" vertex="1" parent="QJfZs9zZ-QmVLLbZD2tx-22">
          <mxGeometry y="52" width="160" height="26" as="geometry" />
        </mxCell>
        <mxCell id="QJfZs9zZ-QmVLLbZD2tx-25" value="passSalt: string (hex)" style="text;align=left;verticalAlign=top;spacingLeft=4;spacingRight=4;overflow=hidden;rotatable=0;points=[[0,0.5],[1,0.5]];portConstraint=eastwest;rounded=0;shadow=0;html=0;" vertex="1" parent="QJfZs9zZ-QmVLLbZD2tx-22">
          <mxGeometry y="78" width="160" height="26" as="geometry" />
        </mxCell>
        <mxCell id="QJfZs9zZ-QmVLLbZD2tx-26" value="name: string" style="text;align=left;verticalAlign=top;spacingLeft=4;spacingRight=4;overflow=hidden;rotatable=0;points=[[0,0.5],[1,0.5]];portConstraint=eastwest;rounded=0;shadow=0;html=0;" vertex="1" parent="QJfZs9zZ-QmVLLbZD2tx-22">
          <mxGeometry y="104" width="160" height="26" as="geometry" />
        </mxCell>
        <mxCell id="QJfZs9zZ-QmVLLbZD2tx-27" value="type: UserType" style="text;align=left;verticalAlign=top;spacingLeft=4;spacingRight=4;overflow=hidden;rotatable=0;points=[[0,0.5],[1,0.5]];portConstraint=eastwest;rounded=0;shadow=0;html=0;" vertex="1" parent="QJfZs9zZ-QmVLLbZD2tx-22">
          <mxGeometry y="130" width="160" height="26" as="geometry" />
        </mxCell>
        <mxCell id="QJfZs9zZ-QmVLLbZD2tx-28" value="curSession: string" style="text;align=left;verticalAlign=top;spacingLeft=4;spacingRight=4;overflow=hidden;rotatable=0;points=[[0,0.5],[1,0.5]];portConstraint=eastwest;rounded=0;shadow=0;html=0;" vertex="1" parent="QJfZs9zZ-QmVLLbZD2tx-22">
          <mxGeometry y="156" width="160" height="26" as="geometry" />
        </mxCell>
        <mxCell id="QJfZs9zZ-QmVLLbZD2tx-29" value="curSessionExpiry: Date" style="text;align=left;verticalAlign=top;spacingLeft=4;spacingRight=4;overflow=hidden;rotatable=0;points=[[0,0.5],[1,0.5]];portConstraint=eastwest;rounded=0;shadow=0;html=0;" vertex="1" parent="QJfZs9zZ-QmVLLbZD2tx-22">
          <mxGeometry y="182" width="160" height="26" as="geometry" />
        </mxCell>
        <mxCell id="QJfZs9zZ-QmVLLbZD2tx-32" value="" style="endArrow=classic;startArrow=classic;html=1;rounded=0;" edge="1" parent="WIyWlLk6GJQsqaUBKTNV-1" source="QJfZs9zZ-QmVLLbZD2tx-22" target="zkfFHV4jXpPFQw0GAbJ--0">
          <mxGeometry width="50" height="50" relative="1" as="geometry">
            <mxPoint x="410" y="500" as="sourcePoint" />
            <mxPoint x="460" y="450" as="targetPoint" />
            <Array as="points">
              <mxPoint x="300" y="615" />
            </Array>
          </mxGeometry>
        </mxCell>
        <mxCell id="QJfZs9zZ-QmVLLbZD2tx-34" value="1 username" style="edgeLabel;html=1;align=center;verticalAlign=middle;resizable=0;points=[];" vertex="1" connectable="0" parent="QJfZs9zZ-QmVLLbZD2tx-32">
          <mxGeometry x="-0.8799" relative="1" as="geometry">
            <mxPoint x="-17" y="-14" as="offset" />
          </mxGeometry>
        </mxCell>
        <mxCell id="QJfZs9zZ-QmVLLbZD2tx-35" value="* user:&amp;lt;username&amp;gt;:nodes" style="edgeLabel;html=1;align=center;verticalAlign=middle;resizable=0;points=[];" vertex="1" connectable="0" parent="QJfZs9zZ-QmVLLbZD2tx-32">
          <mxGeometry x="0.9085" y="-1" relative="1" as="geometry">
            <mxPoint x="69" as="offset" />
          </mxGeometry>
        </mxCell>
        <mxCell id="QJfZs9zZ-QmVLLbZD2tx-36" value="" style="endArrow=classic;startArrow=classic;html=1;rounded=0;" edge="1" parent="WIyWlLk6GJQsqaUBKTNV-1" source="zkfFHV4jXpPFQw0GAbJ--0" target="zkfFHV4jXpPFQw0GAbJ--17">
          <mxGeometry width="50" height="50" relative="1" as="geometry">
            <mxPoint x="410" y="510" as="sourcePoint" />
            <mxPoint x="460" y="460" as="targetPoint" />
          </mxGeometry>
        </mxCell>
        <mxCell id="QJfZs9zZ-QmVLLbZD2tx-37" value="* network:&amp;lt;network-uuid&amp;gt;:nodes" style="edgeLabel;html=1;align=center;verticalAlign=middle;resizable=0;points=[];" vertex="1" connectable="0" parent="QJfZs9zZ-QmVLLbZD2tx-36">
          <mxGeometry x="-0.892" y="1" relative="1" as="geometry">
            <mxPoint x="70" y="-11" as="offset" />
          </mxGeometry>
        </mxCell>
        <mxCell id="QJfZs9zZ-QmVLLbZD2tx-38" value="1 networkId" style="edgeLabel;html=1;align=center;verticalAlign=middle;resizable=0;points=[];" vertex="1" connectable="0" parent="QJfZs9zZ-QmVLLbZD2tx-36">
          <mxGeometry x="0.8528" y="1" relative="1" as="geometry">
            <mxPoint x="-17" y="14" as="offset" />
          </mxGeometry>
        </mxCell>
        <mxCell id="QJfZs9zZ-QmVLLbZD2tx-39" value="" style="endArrow=classic;startArrow=classic;html=1;rounded=0;" edge="1" parent="WIyWlLk6GJQsqaUBKTNV-1" source="zkfFHV4jXpPFQw0GAbJ--17" target="QJfZs9zZ-QmVLLbZD2tx-22">
          <mxGeometry width="50" height="50" relative="1" as="geometry">
            <mxPoint x="640" y="310" as="sourcePoint" />
            <mxPoint x="520" y="320" as="targetPoint" />
            <Array as="points">
              <mxPoint x="690" y="615" />
            </Array>
          </mxGeometry>
        </mxCell>
        <mxCell id="QJfZs9zZ-QmVLLbZD2tx-40" value="* user:&amp;lt;username&amp;gt;:networks" style="edgeLabel;html=1;align=center;verticalAlign=middle;resizable=0;points=[];" vertex="1" connectable="0" parent="QJfZs9zZ-QmVLLbZD2tx-39">
          <mxGeometry x="-0.9068" relative="1" as="geometry">
            <mxPoint x="-80" y="-9" as="offset" />
          </mxGeometry>
        </mxCell>
        <mxCell id="QJfZs9zZ-QmVLLbZD2tx-41" value="1 username" style="edgeLabel;html=1;align=center;verticalAlign=middle;resizable=0;points=[];" vertex="1" connectable="0" parent="QJfZs9zZ-QmVLLbZD2tx-39">
          <mxGeometry x="0.9438" y="-4" relative="1" as="geometry">
            <mxPoint x="18" y="-11" as="offset" />
          </mxGeometry>
        </mxCell>
      </root>
    </mxGraphModel>
  </diagram>
  <diagram id="jDqlsOnL85RZWqNOKEsC" name="node-state">
    <mxGraphModel dx="1022" dy="665" grid="1" gridSize="10" guides="1" tooltips="1" connect="1" arrows="1" fold="1" page="1" pageScale="1" pageWidth="850" pageHeight="1100" math="0" shadow="0">
      <root>
        <mxCell id="0" />
        <mxCell id="1" parent="0" />
        <mxCell id="uX85E2jWJXjy036d8xp4-1" value="" style="ellipse;html=1;shape=startState;fillColor=#000000;strokeColor=#ff0000;" vertex="1" parent="1">
          <mxGeometry x="125" y="260" width="30" height="30" as="geometry" />
        </mxCell>
        <mxCell id="uX85E2jWJXjy036d8xp4-2" value="" style="edgeStyle=orthogonalEdgeStyle;html=1;verticalAlign=bottom;endArrow=open;endSize=8;strokeColor=#ff0000;rounded=0;entryX=0;entryY=0.5;entryDx=0;entryDy=0;" edge="1" source="uX85E2jWJXjy036d8xp4-1" parent="1" target="uX85E2jWJXjy036d8xp4-3">
          <mxGeometry relative="1" as="geometry">
            <mxPoint x="165" y="350" as="targetPoint" />
          </mxGeometry>
        </mxCell>
        <mxCell id="uX85E2jWJXjy036d8xp4-11" value="" style="edgeStyle=orthogonalEdgeStyle;rounded=0;orthogonalLoop=1;jettySize=auto;html=1;" edge="1" parent="1" source="uX85E2jWJXjy036d8xp4-3" target="uX85E2jWJXjy036d8xp4-5">
          <mxGeometry relative="1" as="geometry" />
        </mxCell>
        <mxCell id="uX85E2jWJXjy036d8xp4-20" value="online [expired]" style="edgeLabel;html=1;align=center;verticalAlign=middle;resizable=0;points=[];" vertex="1" connectable="0" parent="uX85E2jWJXjy036d8xp4-11">
          <mxGeometry x="-0.0249" relative="1" as="geometry">
            <mxPoint as="offset" />
          </mxGeometry>
        </mxCell>
        <mxCell id="uX85E2jWJXjy036d8xp4-13" value="" style="edgeStyle=orthogonalEdgeStyle;rounded=0;orthogonalLoop=1;jettySize=auto;html=1;exitX=1;exitY=0.25;exitDx=0;exitDy=0;entryX=0;entryY=0.25;entryDx=0;entryDy=0;" edge="1" parent="1" source="uX85E2jWJXjy036d8xp4-3" target="uX85E2jWJXjy036d8xp4-6">
          <mxGeometry relative="1" as="geometry" />
        </mxCell>
        <mxCell id="uX85E2jWJXjy036d8xp4-22" value="online [!expired]" style="edgeLabel;html=1;align=center;verticalAlign=middle;resizable=0;points=[];" vertex="1" connectable="0" parent="uX85E2jWJXjy036d8xp4-13">
          <mxGeometry x="-0.0759" relative="1" as="geometry">
            <mxPoint x="5" y="-12" as="offset" />
          </mxGeometry>
        </mxCell>
        <mxCell id="uX85E2jWJXjy036d8xp4-3" value="OFFLINE" style="rounded=1;whiteSpace=wrap;html=1;arcSize=40;fontColor=#000000;fillColor=#ffffc0;strokeColor=#ff0000;" vertex="1" parent="1">
          <mxGeometry x="230" y="255" width="120" height="40" as="geometry" />
        </mxCell>
        <mxCell id="uX85E2jWJXjy036d8xp4-12" value="" style="edgeStyle=orthogonalEdgeStyle;rounded=0;orthogonalLoop=1;jettySize=auto;html=1;" edge="1" parent="1" source="uX85E2jWJXjy036d8xp4-5" target="uX85E2jWJXjy036d8xp4-7">
          <mxGeometry relative="1" as="geometry" />
        </mxCell>
        <mxCell id="uX85E2jWJXjy036d8xp4-25" value="revoke" style="edgeLabel;html=1;align=center;verticalAlign=middle;resizable=0;points=[];" vertex="1" connectable="0" parent="uX85E2jWJXjy036d8xp4-12">
          <mxGeometry x="-0.0759" y="3" relative="1" as="geometry">
            <mxPoint y="-7" as="offset" />
          </mxGeometry>
        </mxCell>
        <mxCell id="uX85E2jWJXjy036d8xp4-5" value="EXPIRED" style="rounded=1;whiteSpace=wrap;html=1;arcSize=40;fontColor=#000000;fillColor=#ffffc0;strokeColor=#ff0000;" vertex="1" parent="1">
          <mxGeometry x="230" y="120" width="120" height="40" as="geometry" />
        </mxCell>
        <mxCell id="uX85E2jWJXjy036d8xp4-16" value="" style="edgeStyle=orthogonalEdgeStyle;rounded=0;orthogonalLoop=1;jettySize=auto;html=1;" edge="1" parent="1" source="uX85E2jWJXjy036d8xp4-6" target="uX85E2jWJXjy036d8xp4-7">
          <mxGeometry relative="1" as="geometry" />
        </mxCell>
        <mxCell id="uX85E2jWJXjy036d8xp4-27" value="revoke" style="edgeLabel;html=1;align=center;verticalAlign=middle;resizable=0;points=[];" vertex="1" connectable="0" parent="uX85E2jWJXjy036d8xp4-16">
          <mxGeometry x="-0.085" relative="1" as="geometry">
            <mxPoint x="20" y="-1" as="offset" />
          </mxGeometry>
        </mxCell>
        <mxCell id="uX85E2jWJXjy036d8xp4-6" value="ONLINE" style="rounded=1;whiteSpace=wrap;html=1;arcSize=40;fontColor=#000000;fillColor=#ffffc0;strokeColor=#ff0000;" vertex="1" parent="1">
          <mxGeometry x="460" y="255" width="120" height="40" as="geometry" />
        </mxCell>
        <mxCell id="uX85E2jWJXjy036d8xp4-7" value="REVOKED" style="rounded=1;whiteSpace=wrap;html=1;arcSize=40;fontColor=#000000;fillColor=#ffffc0;strokeColor=#ff0000;" vertex="1" parent="1">
          <mxGeometry x="460" y="120" width="120" height="40" as="geometry" />
        </mxCell>
        <mxCell id="uX85E2jWJXjy036d8xp4-9" value="LOADING" style="rounded=1;whiteSpace=wrap;html=1;arcSize=40;fontColor=#000000;fillColor=#ffffc0;strokeColor=#ff0000;" vertex="1" parent="1">
          <mxGeometry x="460" y="390" width="120" height="40" as="geometry" />
        </mxCell>
        <mxCell id="uX85E2jWJXjy036d8xp4-10" value="" style="ellipse;html=1;shape=endState;fillColor=#000000;strokeColor=#ff0000;" vertex="1" parent="1">
          <mxGeometry x="670" y="190" width="30" height="30" as="geometry" />
        </mxCell>
        <mxCell id="uX85E2jWJXjy036d8xp4-18" value="" style="edgeStyle=orthogonalEdgeStyle;html=1;verticalAlign=bottom;endArrow=open;endSize=8;strokeColor=#ff0000;rounded=0;entryX=0.5;entryY=0;entryDx=0;entryDy=0;exitX=1;exitY=0.5;exitDx=0;exitDy=0;" edge="1" parent="1" source="uX85E2jWJXjy036d8xp4-7" target="uX85E2jWJXjy036d8xp4-10">
          <mxGeometry relative="1" as="geometry">
            <mxPoint x="240" y="285" as="targetPoint" />
            <mxPoint x="590" y="150" as="sourcePoint" />
          </mxGeometry>
        </mxCell>
        <mxCell id="uX85E2jWJXjy036d8xp4-19" value="delete" style="edgeLabel;html=1;align=center;verticalAlign=middle;resizable=0;points=[];" vertex="1" connectable="0" parent="uX85E2jWJXjy036d8xp4-18">
          <mxGeometry x="0.0183" y="2" relative="1" as="geometry">
            <mxPoint x="-9" y="-8" as="offset" />
          </mxGeometry>
        </mxCell>
        <mxCell id="uX85E2jWJXjy036d8xp4-23" value="" style="edgeStyle=orthogonalEdgeStyle;rounded=0;orthogonalLoop=1;jettySize=auto;html=1;exitX=0.9;exitY=0.009;exitDx=0;exitDy=0;entryX=0.25;entryY=1;entryDx=0;entryDy=0;exitPerimeter=0;" edge="1" parent="1" source="uX85E2jWJXjy036d8xp4-3" target="uX85E2jWJXjy036d8xp4-7">
          <mxGeometry relative="1" as="geometry">
            <mxPoint x="360" y="150" as="sourcePoint" />
            <mxPoint x="470" y="150" as="targetPoint" />
          </mxGeometry>
        </mxCell>
        <mxCell id="uX85E2jWJXjy036d8xp4-24" value="revoke" style="edgeLabel;html=1;align=center;verticalAlign=middle;resizable=0;points=[];" vertex="1" connectable="0" parent="uX85E2jWJXjy036d8xp4-23">
          <mxGeometry x="0.0153" relative="1" as="geometry">
            <mxPoint x="1" y="-9" as="offset" />
          </mxGeometry>
        </mxCell>
        <mxCell id="uX85E2jWJXjy036d8xp4-29" value="" style="endArrow=classic;html=1;rounded=0;exitX=0.75;exitY=1;exitDx=0;exitDy=0;entryX=0.75;entryY=0;entryDx=0;entryDy=0;" edge="1" parent="1" source="uX85E2jWJXjy036d8xp4-6" target="uX85E2jWJXjy036d8xp4-9">
          <mxGeometry width="50" height="50" relative="1" as="geometry">
            <mxPoint x="550" y="360" as="sourcePoint" />
            <mxPoint x="600" y="310" as="targetPoint" />
          </mxGeometry>
        </mxCell>
        <mxCell id="uX85E2jWJXjy036d8xp4-31" value="ready to update&lt;br&gt;[update requested]" style="edgeLabel;html=1;align=center;verticalAlign=middle;resizable=0;points=[];" vertex="1" connectable="0" parent="uX85E2jWJXjy036d8xp4-29">
          <mxGeometry x="-0.1687" y="-1" relative="1" as="geometry">
            <mxPoint x="51" as="offset" />
          </mxGeometry>
        </mxCell>
        <mxCell id="uX85E2jWJXjy036d8xp4-30" value="" style="endArrow=classic;html=1;rounded=0;exitX=0.25;exitY=0;exitDx=0;exitDy=0;entryX=0.25;entryY=1;entryDx=0;entryDy=0;" edge="1" parent="1" source="uX85E2jWJXjy036d8xp4-9" target="uX85E2jWJXjy036d8xp4-6">
          <mxGeometry width="50" height="50" relative="1" as="geometry">
            <mxPoint x="550" y="360" as="sourcePoint" />
            <mxPoint x="600" y="310" as="targetPoint" />
          </mxGeometry>
        </mxCell>
        <mxCell id="uX85E2jWJXjy036d8xp4-32" value="done&lt;br&gt;updating" style="edgeLabel;html=1;align=center;verticalAlign=middle;resizable=0;points=[];" vertex="1" connectable="0" parent="uX85E2jWJXjy036d8xp4-30">
          <mxGeometry x="-0.1228" relative="1" as="geometry">
            <mxPoint x="-25" y="-8" as="offset" />
          </mxGeometry>
        </mxCell>
        <mxCell id="uX85E2jWJXjy036d8xp4-33" value="&lt;font style=&quot;font-size: 8px;&quot;&gt;To be instantiated, a node must register itself by passing node information along with the network it wishes to connect to.&lt;/font&gt;" style="shape=note;size=20;whiteSpace=wrap;html=1;" vertex="1" parent="1">
          <mxGeometry x="70" y="160" width="140" height="90" as="geometry" />
        </mxCell>
        <mxCell id="uX85E2jWJXjy036d8xp4-34" value="&lt;font style=&quot;font-size: 8px;&quot;&gt;At any time, a node owner can revoke a node&#39;s access to their networks&lt;/font&gt;" style="shape=note;size=20;whiteSpace=wrap;html=1;" vertex="1" parent="1">
          <mxGeometry x="460" y="35" width="140" height="70" as="geometry" />
        </mxCell>
        <mxCell id="uX85E2jWJXjy036d8xp4-35" value="&lt;font style=&quot;font-size: 8px;&quot;&gt;When a node owner requests an update through the portal, the node receives the request then marks itself as loading.&lt;/font&gt;" style="shape=note;size=20;whiteSpace=wrap;html=1;" vertex="1" parent="1">
          <mxGeometry x="600" y="360" width="140" height="90" as="geometry" />
        </mxCell>
        <mxCell id="uX85E2jWJXjy036d8xp4-36" value="&lt;font style=&quot;font-size: 8px;&quot;&gt;An expired node must re-register to go back online.&lt;/font&gt;" style="shape=note;size=20;whiteSpace=wrap;html=1;" vertex="1" parent="1">
          <mxGeometry x="190" y="30" width="90" height="80" as="geometry" />
        </mxCell>
        <mxCell id="uX85E2jWJXjy036d8xp4-38" value="" style="edgeStyle=orthogonalEdgeStyle;rounded=0;orthogonalLoop=1;jettySize=auto;html=1;exitX=0;exitY=0.75;exitDx=0;exitDy=0;entryX=1;entryY=0.75;entryDx=0;entryDy=0;" edge="1" parent="1" source="uX85E2jWJXjy036d8xp4-6" target="uX85E2jWJXjy036d8xp4-3">
          <mxGeometry relative="1" as="geometry">
            <mxPoint x="360" y="275" as="sourcePoint" />
            <mxPoint x="470" y="275" as="targetPoint" />
          </mxGeometry>
        </mxCell>
        <mxCell id="uX85E2jWJXjy036d8xp4-39" value="offline" style="edgeLabel;html=1;align=center;verticalAlign=middle;resizable=0;points=[];" vertex="1" connectable="0" parent="uX85E2jWJXjy036d8xp4-38">
          <mxGeometry x="-0.0759" relative="1" as="geometry">
            <mxPoint x="1" y="-10" as="offset" />
          </mxGeometry>
        </mxCell>
        <mxCell id="uX85E2jWJXjy036d8xp4-40" value="&lt;font style=&quot;font-size: 8px;&quot;&gt;An offline node can only go online if its credentials are not expired.&lt;/font&gt;" style="shape=note;size=20;whiteSpace=wrap;html=1;" vertex="1" parent="1">
          <mxGeometry x="200" y="330" width="140" height="90" as="geometry" />
        </mxCell>
      </root>
    </mxGraphModel>
  </diagram>
</mxfile>
